<svg width="127" height="115" viewBox="0 0 127 115" fill="none" xmlns="http://www.w3.org/2000/svg">
<path fill-rule="evenodd" clip-rule="evenodd" d="M22.554 0.255615H103.349H103.352C115.499 0.255615 125.007 9.65292 125.007 21.6499V93.419C125.007 105.377 115.406 114.744 103.148 114.744H22.3561C10.0952 114.744 0.5 105.377 0.5 93.419V21.6499C0.5 9.85681 10.3951 0.255615 22.554 0.255615ZM103.145 112.292C114.029 112.292 122.551 104.001 122.551 93.416L122.554 93.419V21.6469C122.554 11.0232 114.119 2.70839 103.352 2.70839H22.557C11.5675 2.70839 2.95277 11.0262 2.95277 21.6469V93.416C2.95277 104.001 11.4775 112.292 22.3561 112.292H103.145ZM80.2057 68.2827L89.3482 52.8404L89.3512 52.8464L91.8249 68.3966H107.423L93.3452 78.2497L95.621 93.776L83.4231 84.4056L67.0543 94.1298L74.7065 77.674C74.7065 77.674 65.8069 68.2887 65.8129 68.2887C65.2162 67.4881 65.0153 65.4311 65.0153 64.5466C65.0153 63.4264 65.0861 62.2917 65.1615 61.0835C65.2474 59.7077 65.3392 58.2365 65.3392 56.5826C65.3392 52.4956 63.555 50.3607 59.1922 50.3607H51.0123L47.4501 67.2212H35.1442L44.9314 20.8794H68.0888C76.6945 20.8794 83.2612 23.0203 83.2612 32.8914C83.2612 39.8389 79.8789 44.7744 72.4186 45.8119V45.9439C75.9269 46.7864 77.2402 49.1882 77.2402 53.659C77.2402 55.4441 77.1864 57.0105 77.1357 58.4839L77.1357 58.4843C77.0907 59.7925 77.0483 61.0273 77.0483 62.2767C77.0483 63.8779 77.4591 66.4956 78.4966 68.2827H80.2057ZM53.0873 41.68H62.8684L62.8654 41.677C67.3002 41.677 71.1383 40.3127 71.1383 35.3142C71.1383 31.3502 67.7709 30.5076 64.5296 30.5076H55.4291L53.0873 41.68ZM92.5715 88.5706L90.9044 77.1852H90.9014L100.236 70.6545H89.8849L88.0978 59.3951L81.4981 70.5436H71.0633L77.4081 77.2272L72.1907 88.4326L83.591 81.665L92.5715 88.5706ZM123.465 111.149C123.465 110.514 123.084 110.196 122.328 110.196H121.006V113.533H121.525V112.097H122.074L122.982 113.533H123.54L122.586 112.061C123.171 111.986 123.465 111.683 123.465 111.152V111.149ZM121.525 111.677V110.616H122.241C122.709 110.616 122.943 110.786 122.943 111.128C122.943 111.326 122.883 111.467 122.769 111.551C122.652 111.635 122.436 111.677 122.119 111.677H121.525ZM119.241 111.86C119.241 110.271 120.533 108.978 122.122 108.978C123.712 108.978 125.004 110.271 125.004 111.86C125.004 113.449 123.712 114.741 122.122 114.741C120.533 114.741 119.241 113.449 119.241 111.86ZM119.691 111.86C119.691 113.2 120.782 114.292 122.122 114.292C123.463 114.292 124.554 113.2 124.554 111.86C124.554 110.519 123.463 109.428 122.122 109.428C120.782 109.428 119.691 110.519 119.691 111.86Z" fill="white"/>
</svg>
